<svg xmlns="http://www.w3.org/2000/svg" viewBox="0 0 580.6 206.38"><defs><style>.cls-1{fill:#fff;}.cls-2{stroke:#fff;stroke-miterlimit:10;stroke-width:0.75px;}</style></defs><title>white_1</title><g id="Layer_2" data-name="Layer 2"><g id="Layer_1-2" data-name="Layer 1"><path class="cls-1" d="M29.93,167.71a14.94,14.94,0,0,1-8-1.87,13.37,13.37,0,0,1-4.73-5.17,21.9,21.9,0,0,1-2.31-7.81,80.65,80.65,0,0,1-.55-9.8V64.49H0v-4.4H14.31V28.83h4.84V60.09H38.52v4.4H19.15v78.75q0,10.81,2.53,15.66c1.68,3.24,4.66,4.85,8.91,4.85a20.7,20.7,0,0,0,4.3-.49A10.93,10.93,0,0,0,39,161.55l1.1,4A24.16,24.16,0,0,1,29.93,167.71Z"/><path class="cls-1" d="M66.25,166.39H61.4V0h4.85V85.84h.44Q69.1,72.63,76.26,64.6a23.24,23.24,0,0,1,18.16-8q8.58,0,13.54,3.86a25.27,25.27,0,0,1,7.59,9.68A42.17,42.17,0,0,1,119,82.87,119.73,119.73,0,0,1,119.73,96v70.43h-4.84V96a111.68,111.68,0,0,0-.66-11.88,39.82,39.82,0,0,0-2.86-11.34,21.59,21.59,0,0,0-6.28-8.47Q101,61,94.42,61A19.58,19.58,0,0,0,82.09,65a33.18,33.18,0,0,0-8.8,10.45A53.48,53.48,0,0,0,68,89.69a68.15,68.15,0,0,0-1.76,15.08Z"/><path class="cls-1" d="M158.69,27.07a4.82,4.82,0,0,1-3.52-1.54,5.93,5.93,0,0,1-1.55-4.4,5.74,5.74,0,0,1,1.55-4.07,4.58,4.58,0,0,1,7,0,5.77,5.77,0,0,1,1.54,4.07,5.71,5.71,0,0,1-1.65,4.4A5,5,0,0,1,158.69,27.07Zm-2.42,139.32V60.09h4.84v106.3Z"/><path class="cls-1" d="M237.92,139.1q0,13.65-6.5,22.23t-18.37,8.58q-18.5,0-25.53-18l3.52-2.64q7,16.29,22.23,16.28a17.21,17.21,0,0,0,14.41-7q5.4-7,5.4-18.93a25.7,25.7,0,0,0-2.21-11.33,22.78,22.78,0,0,0-5.5-7.38,30.34,30.34,0,0,0-7.15-4.62q-3.85-1.75-7.15-3.3a40.86,40.86,0,0,1-7.38-3.74,23.67,23.67,0,0,1-5.94-5.5,25.42,25.42,0,0,1-4-7.71,35,35,0,0,1-1.43-10.78,32.41,32.41,0,0,1,1.87-11.12,30.07,30.07,0,0,1,5.17-9.13A24.15,24.15,0,0,1,207,58.77a20.21,20.21,0,0,1,9.36-2.21q8.35,0,14,4.19a27.57,27.57,0,0,1,8.7,11l-3.52,2.42Q229.33,61,216.35,61q-8.15,0-13.65,6.82T197.2,85a31.31,31.31,0,0,0,1.21,9.35,19,19,0,0,0,3.52,6.6,22,22,0,0,0,5.61,4.74,53.91,53.91,0,0,0,7.71,3.74q4,1.76,8,4.07a32.79,32.79,0,0,1,7.37,5.72,25.64,25.64,0,0,1,5.29,8.26A30.74,30.74,0,0,1,237.92,139.1Z"/><path class="cls-1" d="M269.17,27.07a4.82,4.82,0,0,1-3.52-1.54,5.92,5.92,0,0,1-1.54-4.4,5.73,5.73,0,0,1,1.54-4.07,4.58,4.58,0,0,1,7,0,5.73,5.73,0,0,1,1.54,4.07,5.71,5.71,0,0,1-1.65,4.4A5,5,0,0,1,269.17,27.07Zm-2.42,139.32V60.09h4.84v106.3Z"/><path class="cls-1" d="M348.4,139.1q0,13.65-6.49,22.23t-18.38,8.58q-18.48,0-25.53-18l3.52-2.64q7.05,16.29,22.23,16.28a17.23,17.23,0,0,0,14.42-7q5.38-7,5.39-18.93a25.85,25.85,0,0,0-2.2-11.33,22.93,22.93,0,0,0-5.5-7.38,30.19,30.19,0,0,0-7.16-4.62q-3.85-1.75-7.15-3.3a40.77,40.77,0,0,1-7.37-3.74,23.33,23.33,0,0,1-5.94-5.5,25.66,25.66,0,0,1-4-7.71,35.32,35.32,0,0,1-1.43-10.78,32.41,32.41,0,0,1,1.87-11.12,30.09,30.09,0,0,1,5.18-9.13,24.15,24.15,0,0,1,7.59-6.16,20.17,20.17,0,0,1,9.35-2.21q8.37,0,14,4.19a27.55,27.55,0,0,1,8.69,11L346,74.17Q339.82,61,326.83,61q-8.15,0-13.64,6.82T307.68,85a31.64,31.64,0,0,0,1.21,9.35,19,19,0,0,0,3.53,6.6,22,22,0,0,0,5.61,4.74,53.76,53.76,0,0,0,7.7,3.74q4,1.76,8,4.07a32.79,32.79,0,0,1,7.37,5.72,25.78,25.78,0,0,1,5.28,8.26A30.74,30.74,0,0,1,348.4,139.1Z"/><path class="cls-1" d="M462.19,56.56q8.58,0,13.54,3.86a25.27,25.27,0,0,1,7.59,9.68,41.88,41.88,0,0,1,3.41,12.77A119.73,119.73,0,0,1,487.5,96v70.43h-4.84V96A111.68,111.68,0,0,0,482,84.08a39.82,39.82,0,0,0-2.86-11.34,21.66,21.66,0,0,0-6.27-8.47Q468.79,61,462.19,61A19.09,19.09,0,0,0,450,65a31.45,31.45,0,0,0-8.48,10.45,56,56,0,0,0-4.95,14.2,72.91,72.91,0,0,0-1.65,15.08v61.62h-4.84V96a116.64,116.64,0,0,0-.66-12.21,43.55,43.55,0,0,0-2.64-11.34,20,20,0,0,0-5.84-8.25Q417.07,61,410.69,61A19.58,19.58,0,0,0,398.36,65a33.18,33.18,0,0,0-8.8,10.45,53.48,53.48,0,0,0-5.28,14.2,68.15,68.15,0,0,0-1.76,15.08v61.62h-4.85V86.94c0-1.76,0-3.85-.11-6.27s-.14-4.92-.22-7.49-.14-5-.22-7.37-.18-4.25-.33-5.72h4.85c.14,1.47.25,3.37.33,5.72s.14,4.81.22,7.37.11,5.06.11,7.49v6.27h.44q2.42-13.87,9.68-22.12a23.31,23.31,0,0,1,18.27-8.26A21.4,21.4,0,0,1,421.36,59a19.34,19.34,0,0,1,6.94,6.6,28.59,28.59,0,0,1,3.74,9.9,103.08,103.08,0,0,1,1.54,12.11H434a47.13,47.13,0,0,1,3.3-12.11,36.89,36.89,0,0,1,6.05-9.9,27.61,27.61,0,0,1,8.37-6.6A22.5,22.5,0,0,1,462.19,56.56Z"/><path class="cls-1" d="M521.61,112a130.34,130.34,0,0,0,1.66,21.57,57.69,57.69,0,0,0,5.28,17,30.85,30.85,0,0,0,9,11,21.53,21.53,0,0,0,13.1,4q9.24,0,14.85-5.5a38,38,0,0,0,8.7-13.21l3.52,2A38.63,38.63,0,0,1,568,163.53q-6.72,6.39-17.28,6.38A26.23,26.23,0,0,1,536,165.84a33.24,33.24,0,0,1-10.56-11.44,59.69,59.69,0,0,1-6.5-17.83,113.5,113.5,0,0,1-2.2-23.22A110,110,0,0,1,519,90.79a65.12,65.12,0,0,1,6.39-18.05A34.19,34.19,0,0,1,535.7,60.86,24.36,24.36,0,0,1,550,56.56q8.58,0,14.41,4.08a30.47,30.47,0,0,1,9.47,10.89,52.37,52.37,0,0,1,5.17,15.85,113.11,113.11,0,0,1,1.54,18.93V112Zm54.59-4.4a102.75,102.75,0,0,0-1.65-19.24,55.11,55.11,0,0,0-4.84-14.82A25.77,25.77,0,0,0,561.56,64,19.75,19.75,0,0,0,550,60.53a18.67,18.67,0,0,0-13.32,5.08A40,40,0,0,0,527.89,78a60.81,60.81,0,0,0-4.84,15.48,83.23,83.23,0,0,0-1.44,14.15Z"/><line class="cls-2" x1="34.85" y1="206" x2="546.04" y2="206"/></g></g></svg>