<svg xmlns="http://www.w3.org/2000/svg" viewBox="0 0 1626.51 310.72"><defs><style>.cls-1{fill:#fff;stroke:#000;stroke-miterlimit:10;}</style></defs><title>thisismelogo</title><g id="Layer_2" data-name="Layer 2"><g id="Layer_1-2" data-name="Layer 1"><path class="cls-1" d="M1357.13,10l243.54,101.26a41.14,41.14,0,0,1,25.34,38V163.8a41.15,41.15,0,0,1-25.28,38L1357.2,303.52a41.13,41.13,0,1,1-31.25-76.1L1406.43,195c34.37-13.86,34.32-62.54-.07-76.33L1326,86.41a41.16,41.16,0,0,1-25.82-38.18V48a41.13,41.13,0,0,1,56.93-38"/><path class="cls-1" d="M269.37,303.55,25.84,202.29a41.13,41.13,0,0,1-25.34-38V149.72a41.15,41.15,0,0,1,25.27-38L269.31,10a41.14,41.14,0,1,1,31.24,76.11l-80.47,32.45c-34.37,13.86-34.33,62.53.07,76.33l80.33,32.23A41.12,41.12,0,0,1,326.3,265.3v.27a41.13,41.13,0,0,1-56.93,38"/><path class="cls-1" d="M401.34,249.41l35.24-10.23V101.09c0-8.33-.58-13.73-1.71-16.2s-4.18-5.2-9.09-8.24L400.77,63l1.7-42.62,15.35-2.84Q487.72,3.36,521.25,2.2a184.51,184.51,0,0,1,7.39,24.44q30.68-14.2,52.57-20.17t40.06-6a104.73,104.73,0,0,1,41.49,8.24q19.31,8.25,29,21.88,32.4-15.9,58.25-23A185.45,185.45,0,0,1,799.15.5q46.58,0,68.76,26.71t22.16,81.26v112q0,11.94,1.7,15.91t9.67,8.52l27.28,15.91-2.28,42.63H771.87l-2.85-54,27.28-7.95V134.05q0-24.43-1.41-35a23.7,23.7,0,0,0-9.39-16.48q-8-6-26.7-6-14.79,0-49.44,5.11a235.06,235.06,0,0,1,1.13,26.71v112q0,11.94,1.7,15.91t10.23,8.52l27.85,15.91L748,303.4H592.29l-2.84-54,27.27-7.95V134.05q0-25-1.41-35.52t-9.38-16.19q-8-5.69-26.14-5.69-19.92,0-48.31,5.11V220.43q0,11.94,1.71,15.91t9.08,8.52l27.85,15.91-2.27,42.63H404.19Z"/><path class="cls-1" d="M979,269.87q-36.1-40.34-36.09-111.39,0-49.44,17.61-85t50-54.27Q1042.93.5,1086.12.5q64.22,0,98.6,40.91t32.68,116.51l-172.76,31.82q8,23.87,22.44,34.95t38.36,11.08q16.49,0,39.21-4.83a338.29,338.29,0,0,0,46-13.35l13.07,56.26q-21,15.91-54.56,26.14a230.91,230.91,0,0,1-67.62,10.23q-66.49,0-102.57-40.35M1124.2,110.18Q1123.06,88.6,1112,78.64t-31-10a105.74,105.74,0,0,0-31.26,4.55q-11.93,27.86-10.79,60.24Z"/></g></g></svg>