<svg xmlns="http://www.w3.org/2000/svg" viewBox="0 0 245.33 87.42"><defs><style>.cls-1{fill:#fff;}.cls-2{stroke:#fff;stroke-miterlimit:10;stroke-width:0.75px;}</style></defs><title>white</title><g id="Layer_2" data-name="Layer 2"><g id="Layer_1-2" data-name="Layer 1"><path class="cls-1" d="M12.65,70.87a6.41,6.41,0,0,1-3.4-.79,5.81,5.81,0,0,1-2-2.19,9.4,9.4,0,0,1-1-3.3A33.22,33.22,0,0,1,6,60.45V27.25H0V25.39H6V12.18H8.09V25.39h8.18v1.86H8.09V60.52q0,4.57,1.07,6.62a3.88,3.88,0,0,0,3.77,2,9.35,9.35,0,0,0,1.81-.2,4.66,4.66,0,0,0,1.72-.73l.47,1.68A10.25,10.25,0,0,1,12.65,70.87Z"/><path class="cls-1" d="M28,70.31H26V0h2V36.27h.19a18.08,18.08,0,0,1,4-9,9.81,9.81,0,0,1,7.68-3.4,9.09,9.09,0,0,1,5.72,1.63,10.65,10.65,0,0,1,3.2,4.09A17.63,17.63,0,0,1,50.27,35a52.1,52.1,0,0,1,.32,5.54V70.31H48.54V40.55a48.63,48.63,0,0,0-.27-5,16.75,16.75,0,0,0-1.21-4.79,9.15,9.15,0,0,0-2.65-3.58,7,7,0,0,0-4.51-1.4,8.27,8.27,0,0,0-5.21,1.72A14,14,0,0,0,31,31.9a22.56,22.56,0,0,0-2.23,6A28.7,28.7,0,0,0,28,44.27Z"/><path class="cls-1" d="M67.05,11.44a2.07,2.07,0,0,1-1.49-.65,2.55,2.55,0,0,1-.65-1.86,2.44,2.44,0,0,1,.65-1.72,1.94,1.94,0,0,1,3,0,2.44,2.44,0,0,1,.65,1.72,2.42,2.42,0,0,1-.7,1.86A2.11,2.11,0,0,1,67.05,11.44ZM66,70.31V25.39h2V70.31Z"/><path class="cls-1" d="M100.53,58.78a15.15,15.15,0,0,1-2.74,9.39A9.17,9.17,0,0,1,90,71.8q-7.81,0-10.79-7.63l1.49-1.12q3,6.89,9.39,6.89a7.28,7.28,0,0,0,6.1-3,12.88,12.88,0,0,0,2.27-8,10.9,10.9,0,0,0-.93-4.79,9.56,9.56,0,0,0-2.32-3.11,12.71,12.71,0,0,0-3-2c-1.09-.49-2.1-1-3-1.39a17.13,17.13,0,0,1-3.11-1.58,9.92,9.92,0,0,1-2.51-2.33,10.75,10.75,0,0,1-1.68-3.25,15,15,0,0,1-.6-4.56,13.68,13.68,0,0,1,.79-4.7,12.77,12.77,0,0,1,2.19-3.85,10.17,10.17,0,0,1,3.2-2.61,8.56,8.56,0,0,1,4-.93,9.59,9.59,0,0,1,5.9,1.77A11.72,11.72,0,0,1,101,30.32l-1.49,1q-2.61-5.58-8.09-5.58a7.13,7.13,0,0,0-5.77,2.88,11.2,11.2,0,0,0-2.32,7.26,13.3,13.3,0,0,0,.51,4,7.78,7.78,0,0,0,1.49,2.79,9.26,9.26,0,0,0,2.37,2A21.91,21.91,0,0,0,91,46.22c1.12.5,2.25,1.07,3.4,1.72a13.92,13.92,0,0,1,3.11,2.42,10.66,10.66,0,0,1,2.23,3.49A12.93,12.93,0,0,1,100.53,58.78Z"/><path class="cls-1" d="M113.74,11.44a2.06,2.06,0,0,1-1.49-.65,2.51,2.51,0,0,1-.65-1.86,2.39,2.39,0,0,1,.65-1.72,1.93,1.93,0,0,1,3,0,2.4,2.4,0,0,1,.66,1.72,2.46,2.46,0,0,1-.7,1.86A2.14,2.14,0,0,1,113.74,11.44Zm-1,58.87V25.39h2.05V70.31Z"/><path class="cls-1" d="M147.21,58.78a15.15,15.15,0,0,1-2.74,9.39,9.16,9.16,0,0,1-7.76,3.63q-7.82,0-10.79-7.63l1.49-1.12q3,6.89,9.39,6.89a7.27,7.27,0,0,0,6.09-3,12.82,12.82,0,0,0,2.28-8,10.9,10.9,0,0,0-.93-4.79,9.59,9.59,0,0,0-2.33-3.11,12.51,12.51,0,0,0-3-2l-3-1.39a16.9,16.9,0,0,1-3.12-1.58,9.92,9.92,0,0,1-2.51-2.33,10.73,10.73,0,0,1-1.67-3.25A14.67,14.67,0,0,1,128,36a13.92,13.92,0,0,1,.79-4.7,12.77,12.77,0,0,1,2.19-3.85,10.21,10.21,0,0,1,3.21-2.61,8.52,8.52,0,0,1,3.95-.93A9.6,9.6,0,0,1,144,25.67a11.7,11.7,0,0,1,3.67,4.65l-1.49,1q-2.59-5.58-8.09-5.58a7.15,7.15,0,0,0-5.77,2.88A11.2,11.2,0,0,0,130,35.9a13.3,13.3,0,0,0,.51,4A7.93,7.93,0,0,0,132,42.64a9.26,9.26,0,0,0,2.37,2,22.05,22.05,0,0,0,3.26,1.58c1.11.5,2.24,1.07,3.39,1.72a13.75,13.75,0,0,1,3.12,2.42,10.83,10.83,0,0,1,2.23,3.49A12.94,12.94,0,0,1,147.21,58.78Z"/><path class="cls-1" d="M195.3,23.9A9.09,9.09,0,0,1,201,25.53a10.65,10.65,0,0,1,3.2,4.09A17.63,17.63,0,0,1,205.67,35a52.1,52.1,0,0,1,.32,5.54V70.31h-2.05V40.55a48.63,48.63,0,0,0-.27-5,16.75,16.75,0,0,0-1.21-4.79,9.15,9.15,0,0,0-2.65-3.58,7,7,0,0,0-4.51-1.4,8.1,8.1,0,0,0-5.17,1.72,13.41,13.41,0,0,0-3.58,4.42,23.86,23.86,0,0,0-2.09,6,31.12,31.12,0,0,0-.7,6.37v26h-2V40.55a50.77,50.77,0,0,0-.28-5.16,18.39,18.39,0,0,0-1.12-4.79,8.45,8.45,0,0,0-2.46-3.49,6.58,6.58,0,0,0-4.33-1.35,8.24,8.24,0,0,0-5.2,1.72,14,14,0,0,0-3.72,4.42,22.58,22.58,0,0,0-2.24,6,29.27,29.27,0,0,0-.74,6.37v26h-2V36.73c0-.74,0-1.62,0-2.65s-.07-2.07-.1-3.16-.06-2.12-.09-3.11-.08-1.8-.14-2.42h2c.06.62.11,1.43.14,2.42s.06,2,.09,3.11,0,2.14,0,3.16v2.65h.18a18.71,18.71,0,0,1,4.09-9.34,9.84,9.84,0,0,1,7.72-3.49,9.09,9.09,0,0,1,4.51,1A8.25,8.25,0,0,1,181,27.71a12,12,0,0,1,1.58,4.19,43.92,43.92,0,0,1,.66,5.11h.18a19.92,19.92,0,0,1,1.4-5.11,15.69,15.69,0,0,1,2.55-4.19,12,12,0,0,1,3.54-2.79A9.56,9.56,0,0,1,195.3,23.9Z"/><path class="cls-1" d="M220.4,47.34a56.1,56.1,0,0,0,.7,9.11,24.53,24.53,0,0,0,2.23,7.16,13,13,0,0,0,3.82,4.65,9.06,9.06,0,0,0,5.53,1.68A8.58,8.58,0,0,0,239,67.61,16.09,16.09,0,0,0,242.63,62l1.49.84A16.3,16.3,0,0,1,240,69.1a10.15,10.15,0,0,1-7.3,2.7,11.12,11.12,0,0,1-6.18-1.72A14.06,14.06,0,0,1,222,65.24a25.3,25.3,0,0,1-2.74-7.53,47.8,47.8,0,0,1-.93-9.81,46.36,46.36,0,0,1,.93-9.54,27.48,27.48,0,0,1,2.7-7.62,14.4,14.4,0,0,1,4.37-5,11.3,11.3,0,0,1,12.13-.09,12.76,12.76,0,0,1,4,4.61,22,22,0,0,1,2.19,6.69,47.91,47.91,0,0,1,.65,8v2.42Zm23.07-1.86a43,43,0,0,0-.7-8.13,23.24,23.24,0,0,0-2-6.26A10.86,10.86,0,0,0,237.28,27a8.38,8.38,0,0,0-4.88-1.44,7.86,7.86,0,0,0-5.62,2.14A17,17,0,0,0,223.06,33,25.3,25.3,0,0,0,221,39.5a35.77,35.77,0,0,0-.61,6Z"/><line class="cls-2" x1="14.72" y1="87.04" x2="230.72" y2="87.04"/></g></g></svg>